<?xml version="1.0" encoding="iso-8859-1"?>
<!-- Generator: Adobe Illustrator 21.1.0, SVG Export Plug-In . SVG Version: 6.00 Build 0)  -->
<svg version="1.1" id="&#x421;&#x43B;&#x43E;&#x439;_1"
	 xmlns="http://www.w3.org/2000/svg" xmlns:xlink="http://www.w3.org/1999/xlink" x="0px" y="0px" viewBox="0 0 127.845 95.697"
	 style="enable-background:new 0 0 127.845 95.697;" xml:space="preserve">
<g>
	<g>
		<linearGradient id="SVGID_1_" gradientUnits="userSpaceOnUse" x1="78.0045" y1="22.1094" x2="37.3409" y2="22.1094">
			<stop  offset="0" style="stop-color:#F093FB"/>
			<stop  offset="1" style="stop-color:#F5576C"/>
		</linearGradient>
		<path style="fill:url(#SVGID_1_);" d="M70.296,28.803c-2.701,0-5.073,1.392-6.45,3.494c-2.369-0.006-4.958-0.009-5.452-0.008
			c-2.903,0.01-5.841-0.843-8.085-2.543c-3.969-3.008-5.567-8.239-3.961-12.956c1.817-5.335,6.285-8.425,12.286-8.381
			c4.16,0.03,8.382-0.019,12.542-0.008c1.827,0.005,5.092,0.008,5.092,0.008L76.347,0c0,0-3.091,0-5.1,0
			C69.087,0,59.75-0.003,57.258,0.131c-5.912,0.317-11.056,2.482-14.886,7.083c-5.4,6.487-6.493,13.886-3.085,21.504
			c3.617,8.083,10.45,11.754,19.167,12.054c0.46,0.016,3.035,0.017,5.43,0.015c1.382,2.068,3.737,3.432,6.412,3.432
			c4.257,0,7.708-3.451,7.708-7.708S74.553,28.803,70.296,28.803z"/>
		<linearGradient id="SVGID_2_" gradientUnits="userSpaceOnUse" x1="90.5045" y1="34.6094" x2="49.8409" y2="34.6094">
			<stop  offset="0" style="stop-color:#2487FF"/>
			<stop  offset="1" style="stop-color:#6049EA"/>
		</linearGradient>
		<path style="fill:url(#SVGID_2_);" d="M57.549,27.916c2.701,0,5.073-1.392,6.45-3.494c2.369,0.006,4.958,0.009,5.452,0.008
			c2.903-0.01,5.841,0.843,8.085,2.543c3.969,3.008,5.567,8.239,3.961,12.956c-1.817,5.335-6.285,8.425-12.286,8.381
			c-4.16-0.03-8.382,0.019-12.542,0.008c-1.827-0.005-5.092-0.008-5.092-0.008l-0.078,8.408c0,0,3.091,0,5.1,0
			c2.161,0,11.498,0.003,13.989-0.131c5.912-0.317,11.056-2.482,14.886-7.083c5.4-6.487,6.493-13.886,3.085-21.504
			c-3.617-8.083-10.45-11.754-19.167-12.054c-0.46-0.016-3.035-0.017-5.43-0.015c-1.382-2.068-3.737-3.432-6.412-3.432
			c-4.257,0-7.708,3.451-7.708,7.708S53.292,27.916,57.549,27.916z"/>
	</g>
	<g>
		<linearGradient id="SVGID_3_" gradientUnits="userSpaceOnUse" x1="7.0713" y1="70.9125" x2="7.0713" y2="95.6973">
			<stop  offset="0" style="stop-color:#F5576C"/>
			<stop  offset="1" style="stop-color:#6049EA"/>
		</linearGradient>
		<path style="fill:url(#SVGID_3_);" d="M14.143,88.591c0,3.925-3.182,7.107-7.071,7.107C3.182,95.697,0,92.515,0,88.591
			c0-0.955,0.778-1.768,1.768-1.768c0.99,0,1.768,0.813,1.768,1.768c0,1.98,1.591,3.571,3.536,3.571s3.536-1.591,3.536-3.571
			c0-1.945-1.591-3.536-3.536-3.536C3.182,85.055,0,81.908,0,77.984c0-3.889,3.182-7.071,7.071-7.071
			c3.889,0,7.071,3.182,7.071,7.071c0,0.99-0.778,1.768-1.768,1.768c-0.955,0-1.768-0.778-1.768-1.768
			c0-1.945-1.591-3.536-3.536-3.536s-3.536,1.591-3.536,3.536c0,1.945,1.591,3.536,3.536,3.536
			C10.96,81.519,14.143,84.701,14.143,88.591z"/>
		<linearGradient id="SVGID_4_" gradientUnits="userSpaceOnUse" x1="25.0313" y1="77.9131" x2="25.0313" y2="95.6621">
			<stop  offset="0" style="stop-color:#F5576C"/>
			<stop  offset="1" style="stop-color:#6049EA"/>
		</linearGradient>
		<path style="fill:url(#SVGID_4_);" d="M33.906,86.788c0,0.955-0.778,1.732-1.768,1.732H19.94c0.743,2.121,2.723,3.642,5.091,3.642
			c0.813,0,2.263-0.071,3.96-1.167c0.813-0.53,1.909-0.035,2.334,0.813c0.424,0.884-0.035,1.803-0.849,2.334
			c-2.333,1.556-4.137,1.52-5.445,1.52c-4.915,0-8.874-3.995-8.874-8.874c0-4.915,3.96-8.874,8.874-8.874
			C29.309,77.913,33.906,81.024,33.906,86.788z M19.94,85.02h10.218c-0.743-2.475-3.005-3.606-5.127-3.606
			C22.662,81.413,20.682,82.934,19.94,85.02z"/>
		<linearGradient id="SVGID_5_" gradientUnits="userSpaceOnUse" x1="44.9006" y1="77.9131" x2="44.9006" y2="95.662">
			<stop  offset="0" style="stop-color:#F5576C"/>
			<stop  offset="1" style="stop-color:#6049EA"/>
		</linearGradient>
		<path style="fill:url(#SVGID_5_);" d="M53.775,86.788v7.107c0,0.99-0.778,1.768-1.768,1.768c-0.955,0-1.732-0.778-1.732-1.768
			v-7.107c0-2.97-2.404-5.374-5.374-5.374c-2.97,0-5.374,2.404-5.374,5.374v7.107c0,0.99-0.778,1.768-1.768,1.768
			c-0.955,0-1.732-0.778-1.732-1.768v-7.107c0-4.915,3.995-8.874,8.874-8.874C49.78,77.913,53.775,81.873,53.775,86.788z"/>
		<linearGradient id="SVGID_6_" gradientUnits="userSpaceOnUse" x1="64.7698" y1="69.1094" x2="64.7698" y2="95.5912">
			<stop  offset="0" style="stop-color:#F5576C"/>
			<stop  offset="1" style="stop-color:#6049EA"/>
		</linearGradient>
		<path style="fill:url(#SVGID_6_);" d="M70.144,79.646v-8.804c0-0.955,0.778-1.732,1.732-1.732c0.99,0,1.768,0.778,1.768,1.732
			v15.84v0.035c0,4.879-3.995,8.874-8.874,8.874c-4.915,0-8.874-3.995-8.874-8.874c0-4.915,3.96-8.874,8.874-8.874
			C66.785,77.842,68.659,78.514,70.144,79.646z M70.144,86.717v-0.035c0-2.935-2.404-5.339-5.374-5.339
			c-2.97,0-5.374,2.404-5.374,5.374c0,2.935,2.404,5.374,5.374,5.374C67.74,92.091,70.144,89.687,70.144,86.717z"/>
		<linearGradient id="SVGID_7_" gradientUnits="userSpaceOnUse" x1="102.2517" y1="70.8653" x2="102.2517" y2="95.662">
			<stop  offset="0" style="stop-color:#F5576C"/>
			<stop  offset="1" style="stop-color:#6049EA"/>
		</linearGradient>
		<path style="fill:url(#SVGID_7_);" d="M109.531,93.965c0,0.955-0.743,1.697-1.697,1.697H96.59c-0.955,0-1.697-0.743-1.697-1.697
			c0-0.495,0.177-0.778,0.46-1.202l10.324-13.117c1.52-3.288-2.015-6.647-5.268-4.808c-1.061,0.636-1.768,1.803-1.768,3.076
			c0,0.955-0.778,1.732-1.768,1.732c-0.955,0-1.768-0.778-1.768-1.732c0-1.909,0.813-3.642,2.051-4.879v-0.035
			c2.192-2.192,5.445-2.687,8.097-1.52c1.732,0.778,3.111,2.157,3.783,3.889c0.778,1.839,0.884,4.349-0.424,6.011l-8.521,10.854
			h7.743C108.788,92.232,109.531,93.01,109.531,93.965z"/>
		<linearGradient id="SVGID_8_" gradientUnits="userSpaceOnUse" x1="118.8159" y1="70.7698" x2="118.8159" y2="95.662">
			<stop  offset="0" style="stop-color:#F5576C"/>
			<stop  offset="1" style="stop-color:#6049EA"/>
		</linearGradient>
		<path style="fill:url(#SVGID_8_);" d="M121.304,93.894v-3.606h-9.758c-0.707,0-1.379-0.424-1.626-1.096
			c-0.248-0.636-0.141-1.308,0.247-1.803l11.562-16.016l0.071-0.071c0.53-0.53,1.273-0.672,1.945-0.389
			c0.672,0.248,1.096,0.919,1.096,1.626v14.213h1.237c0.99,0,1.768,0.778,1.768,1.768c0,0.955-0.778,1.768-1.768,1.768h-1.237v3.606
			c0,0.955-0.778,1.768-1.768,1.768C122.082,95.662,121.304,94.849,121.304,93.894z M112.925,89.616v-0.035V89.616z M121.304,86.752
			v-9.157l-6.081,9.157H121.304z"/>
	</g>
</g>
</svg>
